<svg width="197" height="147" viewBox="0 0 197 147" fill="none" xmlns="http://www.w3.org/2000/svg">
<path d="M89.4549 29.7666C85.6626 29.7666 84.3984 31.3428 81.2532 31.9376C67.2575 34.5993 59.5373 42.4953 59.8984 42.3912C68.4463 40.0268 73.6684 39.9228 75.8806 39.9376C76.8588 39.9376 77.4457 40.0268 77.6113 40.0715C78.454 40.2945 79.0861 41.0529 79.0861 41.9599C79.0861 42.1681 79.0409 42.3763 78.9807 42.5547C78.9807 42.5696 78.9205 42.7332 78.8905 42.7778C78.2132 44.354 72.5548 57.5139 71.5013 59.6255C63.5554 75.3133 57.6561 91.2688 53.9089 107.12L53.7734 107.73H68.9279L69.0182 107.358C73.6684 88.9491 81.6896 69.7073 92.224 51.6849C96.513 44.354 101.193 37.2313 106.159 30.5249L106.731 29.7368H89.47L89.4549 29.7666Z" fill="#231F20"/>
<path d="M162.052 115.596C158.079 120.711 153.504 125.172 148.823 128.474C142.127 132.593 136.318 133.559 132.465 131.18C128.357 128.637 127.544 123.091 127.589 118.882C127.619 115.641 127.92 112.518 129.214 107.968C132.405 107.685 143.421 106.183 152.676 99.2094C153.248 98.7782 153.85 98.347 154.452 97.9306C155.34 97.3061 156.258 96.6518 157.146 95.9381C169.591 85.9752 176.363 73.0829 173.248 65.3059C172.872 64.3691 171.487 62.1237 170.058 60.9936C168.794 59.9973 167.213 58.8969 165.061 58.3913C155.204 56.0716 141.886 62.4955 131.141 74.7781C128.673 77.6034 126.355 80.6963 124.263 83.9975C123.586 85.0532 122.954 86.1387 122.352 87.1945L121.87 88.057L121.84 88.1164L121.795 88.1908C120.591 90.6443 119.011 93.886 118.861 94.228C117.867 96.5329 117.025 98.8972 116.332 101.232C115.896 101.187 115.49 101.068 115.143 100.875C114 100.25 112.645 98.0496 112.645 95.3879C112.645 90.9269 114.12 86.9417 114.797 84.7707C122.563 59.804 136.588 39.6849 139.478 35.3577L140.306 34.1235L138.831 33.8559C122.969 30.9265 102.487 42.4507 86.0233 63.0159C79.7479 75.2539 74.6462 87.8488 70.9893 100.176C72.0427 97.663 73.2165 95.1648 74.4807 92.6964C76.106 89.5142 77.9269 86.332 79.8833 83.2391C88.2657 70.0048 99.0408 58.7631 110.252 51.6701C112.119 50.4805 113.338 49.9898 114.075 49.7519C115.52 49.276 115.399 50.0195 115.234 50.3764C114.993 50.882 114.662 51.566 114.15 52.5772L113.428 54.0047C107.92 64.8003 96.4524 87.2837 101.163 100.815C103.48 107.492 111.953 108.652 112.314 108.697C113.052 108.786 113.834 108.875 114.647 108.934C113.232 118.659 114.978 126.957 119.613 132.37C120.636 133.574 121.81 134.63 123.104 135.537C124.775 136.697 127.664 138.154 129.636 138.615C131.05 138.942 133.383 139.225 134.707 139.225C143.872 139.225 148.432 136.607 150.87 135.195L151.126 135.046C161.149 129.306 170.329 117.291 170.72 116.786L171.909 115.21H162.398L162.097 115.596H162.052ZM136.257 91.8191C136.709 91.0756 137.1 90.4064 137.461 89.7819C137.522 89.6778 137.582 89.5737 137.627 89.4696L137.717 89.2912C138.003 88.8153 138.289 88.3395 138.59 87.8785C141.148 83.8488 143.978 80.1015 147.018 76.7409L147.394 76.3245C149.516 73.9602 155.159 67.6702 161.389 64.8895C162.067 64.5921 162.744 64.4434 163.391 64.4434C164.204 64.4434 164.971 64.6813 165.603 65.1423C167.936 66.8524 167.394 72.1461 164.309 77.7075C163.602 78.9714 162.774 80.2502 161.856 81.4844C160.592 83.1647 159.222 84.6666 157.763 85.9752L157.612 86.109V86.1387C157.055 86.7038 156.468 87.2837 155.897 87.8339C148.041 95.3284 139.041 100.146 131.998 100.726C133.233 97.7225 134.707 94.6592 136.272 91.8191H136.257Z" fill="#939598"/>
<path d="M70.8992 60.8142C66.0986 68.8589 60.3648 75.6842 54.6763 80.0709C49.1532 84.3385 44.2322 85.7958 41.1922 84.0709C38.1523 82.3311 36.9634 77.4091 37.9416 70.5392C38.98 63.2678 42.2457 54.6581 47.1366 46.2863C55.6244 31.7583 67.152 21.5575 74.3304 21.5575C75.429 21.5575 76.4223 21.7954 77.2801 22.2861C79.7933 23.7136 80.9521 27.2527 80.8166 32.0408C80.9521 32.0111 81.0875 31.9813 81.2229 31.9516C83.7813 31.4609 85.0906 30.3308 87.5436 29.9293C86.8814 22.8065 84.0672 17.5277 79.3568 14.6132C73.5178 10.9998 65.5568 11.5797 56.9336 16.2489C48.5061 20.8288 40.3946 28.7992 34.1041 38.7174C27.8135 48.6357 24.0814 59.3272 23.5998 68.8143C23.1032 78.5095 26.0528 85.8404 31.8919 89.4687C39.3863 94.1081 50.312 91.7438 61.0721 83.372C63.8713 75.8329 67.1369 68.3087 70.8691 60.8291L70.8992 60.8142Z" fill="#939598"/>
<path d="M31.6207 108.369C35.9676 108.369 39.4914 104.888 39.4914 100.592C39.4914 96.2973 35.9676 92.8154 31.6207 92.8154C27.2738 92.8154 23.75 96.2973 23.75 100.592C23.75 104.888 27.2738 108.369 31.6207 108.369Z" fill="#231F20"/>
</svg>
