<svg width="42" height="6" viewBox="0 0 42 6" fill="none" xmlns="http://www.w3.org/2000/svg">
<path d="M2.57072 5.62785C2.08065 5.62785 1.64216 5.51752 1.25527 5.29684C0.868368 5.07616 0.558851 4.75364 0.33531 4.33775C0.11177 3.92186 0 3.41261 0 2.82696C0 2.24132 0.11177 1.73207 0.33531 1.30769C0.558851 0.8918 0.868368 0.569269 1.25527 0.348592C1.64216 0.127916 2.08065 0.0175781 2.57072 0.0175781C3.06079 0.0175781 3.49927 0.127916 3.88617 0.348592C4.27306 0.569269 4.57398 0.8918 4.80612 1.30769C5.02966 1.72358 5.14143 2.23284 5.14143 2.82696C5.14143 3.42109 5.02966 3.92186 4.80612 4.33775C4.58258 4.75364 4.27306 5.07616 3.88617 5.29684C3.49927 5.51752 3.06079 5.62785 2.57072 5.62785ZM2.57072 4.67725C2.86304 4.67725 3.12097 4.60935 3.34451 4.46506C3.56805 4.32077 3.74001 4.11707 3.86037 3.83698C3.98074 3.55689 4.04952 3.21739 4.04952 2.81847C4.04952 2.41956 3.98934 2.07157 3.86037 1.79997C3.74001 1.51988 3.55945 1.31617 3.34451 1.17189C3.12097 1.0276 2.86304 0.959697 2.57072 0.959697C2.27839 0.959697 2.02046 1.0276 1.79692 1.17189C1.57338 1.31617 1.40143 1.51988 1.27246 1.79997C1.1435 2.08006 1.08331 2.41956 1.08331 2.81847C1.08331 3.21739 1.1435 3.55689 1.27246 3.83698C1.40143 4.11707 1.57338 4.32077 1.79692 4.46506C2.02046 4.60935 2.27839 4.67725 2.57072 4.67725Z" fill="black"/>
<path d="M10.3675 0.0849609V5.55095H9.4218L6.90267 1.95223H6.85108V5.55095H5.77637V0.0849609H6.73071L9.24125 3.68368H9.29283V0.0849609H10.3675Z" fill="black"/>
<path d="M11.1348 5.55095V0.0849609H14.7974V0.967668H12.2095V2.35114H14.6082V3.22536H12.2095V4.66824H14.806V5.55095H11.1348Z" fill="black"/>
<path d="M19.6029 5.62785C19.1043 5.62785 18.6658 5.51751 18.2789 5.28835C17.9006 5.05919 17.6083 4.73666 17.3933 4.32077C17.1784 3.90488 17.0752 3.40412 17.0752 2.82696C17.0752 2.24981 17.187 1.74055 17.4019 1.32466C17.6169 0.900285 17.9092 0.577758 18.2875 0.357082C18.6658 0.127918 19.0871 0.0175781 19.5685 0.0175781C19.8695 0.0175781 20.1446 0.0600172 20.4111 0.144893C20.669 0.229768 20.9012 0.357084 21.1075 0.518347C21.3139 0.679611 21.4772 0.874823 21.6148 1.08701C21.7438 1.30769 21.8383 1.55383 21.8813 1.81694H20.9958C20.9442 1.65568 20.8754 1.51139 20.7894 1.38408C20.7034 1.25676 20.6003 1.14643 20.4799 1.06155C20.3595 0.968187 20.222 0.900289 20.0758 0.857851C19.9296 0.815413 19.7577 0.789949 19.5771 0.789949C19.2676 0.789949 18.9925 0.866334 18.7432 1.01911C18.4938 1.17189 18.2961 1.40105 18.1499 1.70661C18.0037 2.01216 17.935 2.37712 17.935 2.81847C17.935 3.25983 18.0037 3.62479 18.1499 3.93034C18.2961 4.23589 18.4938 4.46506 18.7432 4.61784C18.9925 4.77062 19.2848 4.85549 19.6029 4.85549C19.9038 4.85549 20.1618 4.79608 20.3767 4.67725C20.6003 4.55843 20.7722 4.38867 20.8926 4.17648C21.013 3.95581 21.0731 3.70118 21.0731 3.40412L21.2881 3.44655H19.7147V2.75057H21.9071V3.37865C21.9071 3.84547 21.8039 4.24438 21.6062 4.5754C21.4084 4.9149 21.1333 5.16953 20.7894 5.35625C20.4455 5.54298 20.0414 5.62785 19.5943 5.62785" fill="black"/>
<path d="M22.6382 5.55065V0.0761719H24.6329C25.0627 0.0761719 25.4152 0.152562 25.699 0.29685C25.9827 0.441139 26.1976 0.644841 26.3352 0.907955C26.4814 1.17107 26.5501 1.46813 26.5501 1.80763C26.5501 2.14714 26.4814 2.4442 26.3352 2.69883C26.189 2.95346 25.9741 3.14867 25.6904 3.29296C25.4066 3.42876 25.0455 3.50515 24.6157 3.50515H23.1283V2.7837H24.5383C24.8048 2.7837 25.0283 2.74976 25.1917 2.67337C25.3551 2.59698 25.484 2.48664 25.5614 2.34235C25.6388 2.19807 25.6818 2.02831 25.6818 1.82461C25.6818 1.62091 25.6388 1.44267 25.5614 1.29838C25.484 1.15409 25.3551 1.03527 25.1917 0.958879C25.0198 0.874003 24.8048 0.840053 24.5297 0.840053H23.498V5.5846H22.6382V5.55065ZM25.7849 5.55065L24.4437 3.08077H25.398L26.7651 5.55065H25.7849Z" fill="black"/>
<path d="M29.5849 5.62725C29.1035 5.62725 28.6822 5.51691 28.3039 5.28774C27.9256 5.05858 27.6247 4.74454 27.4097 4.32016C27.1948 3.90427 27.083 3.40351 27.083 2.81787C27.083 2.23223 27.1948 1.73146 27.4097 1.30708C27.6247 0.882707 27.9256 0.56018 28.3039 0.339504C28.6822 0.118827 29.1121 0 29.5849 0C30.0578 0 30.4963 0.11034 30.866 0.339504C31.2443 0.56018 31.5366 0.882707 31.7602 1.30708C31.9751 1.73146 32.0869 2.23223 32.0869 2.81787C32.0869 3.40351 31.9751 3.90427 31.7602 4.32016C31.5452 4.73605 31.2443 5.05858 30.866 5.28774C30.4877 5.50842 30.0664 5.62725 29.5849 5.62725ZM29.5849 4.84639C29.9031 4.84639 30.1782 4.77001 30.4275 4.61723C30.6769 4.46446 30.8746 4.23529 31.0122 3.92974C31.1583 3.62418 31.2271 3.25922 31.2271 2.81787C31.2271 2.37652 31.1583 2.00306 31.0122 1.69751C30.866 1.39196 30.6769 1.1628 30.4275 1.01002C30.1782 0.857245 29.8945 0.780854 29.5849 0.780854C29.2754 0.780854 28.9917 0.857245 28.7424 1.01002C28.493 1.1628 28.2953 1.39196 28.1491 1.69751C28.003 2.00306 27.9342 2.37652 27.9342 2.81787C27.9342 3.25922 28.003 3.62418 28.1491 3.92974C28.2953 4.23529 28.493 4.46446 28.7424 4.61723C28.9917 4.77001 29.2754 4.84639 29.5849 4.84639Z" fill="black"/>
<path d="M36.3495 0.0849609H37.2093V3.6752C37.2093 4.05714 37.1147 4.39664 36.9341 4.69371C36.7536 4.99077 36.4957 5.21993 36.1603 5.38968C35.825 5.55944 35.4381 5.64431 34.9997 5.64431C34.5612 5.64431 34.1743 5.55944 33.839 5.38968C33.5036 5.21993 33.2457 4.99077 33.0652 4.69371C32.8846 4.39664 32.79 4.05714 32.79 3.6752V0.0849609H33.6498V3.6073C33.6498 3.85344 33.7014 4.06562 33.8132 4.26084C33.9249 4.44756 34.0797 4.60035 34.2774 4.71068C34.4838 4.82102 34.7159 4.87194 34.9911 4.87194C35.2662 4.87194 35.5069 4.82102 35.7047 4.71068C35.9024 4.60035 36.0572 4.45605 36.1689 4.26084C36.2807 4.07411 36.3323 3.85344 36.3323 3.6073V0.0849609H36.3495Z" fill="black"/>
<path d="M38.0877 5.55065V0.0761719H40.0824C40.5123 0.0761719 40.8648 0.152564 41.1485 0.30534C41.4322 0.458116 41.6472 0.670305 41.7847 0.941906C41.9309 1.21351 41.9997 1.51057 41.9997 1.85007C41.9997 2.18958 41.9309 2.49513 41.7847 2.75824C41.6386 3.02984 41.4236 3.24203 41.1399 3.39481C40.8562 3.54759 40.4951 3.62397 40.0652 3.62397H38.7067V2.90253H39.9792C40.2457 2.90253 40.4693 2.8601 40.6326 2.76673C40.796 2.67337 40.9249 2.54605 41.0023 2.38479C41.0797 2.22352 41.1227 2.04529 41.1227 1.84159C41.1227 1.63788 41.0797 1.45116 41.0023 1.29838C40.9249 1.13712 40.796 1.01829 40.6326 0.924928C40.4607 0.831564 40.2457 0.78913 39.9706 0.78913H38.9389V5.53367H38.0791L38.0877 5.55065Z" fill="black"/>
</svg>
