<svg width="307" height="1585" viewBox="0 0 307 1585" fill="none" xmlns="http://www.w3.org/2000/svg">
<g opacity="0.4">
<path d="M272.54 127.369L271.48 719.041L271.48 1540.31" stroke="url(#paint0_linear_48_3446)" stroke-width="1.13945"/>
<path d="M261.896 140.663L261.896 719.041L261.897 1540.31" stroke="url(#paint1_linear_48_3446)" stroke-width="1.13945"/>
<path d="M252.313 152.72L252.313 719.042L252.313 1540.31" stroke="url(#paint2_linear_48_3446)" stroke-width="1.13945"/>
<path d="M204.394 213.931L204.394 719.041L204.394 1540.31" stroke="url(#paint3_linear_48_3446)" stroke-width="1.13945"/>
<path d="M195.562 225.06L194.943 775.769L194.943 1540.18" stroke="url(#paint4_linear_48_3446)" stroke-width="1.13945"/>
<path d="M185.227 237.735L185.227 719.041L185.227 1540.31" stroke="url(#paint5_linear_48_3446)" stroke-width="1.13945"/>
<path d="M271.999 276.167L272.54 309.767L273.081 276.167L274.704 212.168L273.081 148.169L272.54 127.369L271.999 148.169L270.376 212.168L271.999 276.167Z" fill="url(#paint6_linear_48_3446)"/>
<path d="M270.763 1079.2L271.304 1148.8L271.845 1079.2L273.468 946.651L271.845 814.097L271.304 771.017L270.763 814.097L269.14 946.651L270.763 1079.2Z" fill="url(#paint7_linear_48_3446)"/>
<path d="M103.171 5.00978L1.56012 133.521L35.4346 259.023L170.828 256.014L272.441 127.502L238.565 2.00104L103.171 5.00978Z" stroke="black"/>
<path d="M170.79 255L170.79 811.852L170.79 1584.96" stroke="url(#paint8_linear_48_3446)" stroke-width="1.13945"/>
<path d="M170.367 838.475L170.83 863.76L171.294 838.475L172.685 790.313L171.294 742.151L170.83 726.499L170.367 742.151L168.976 790.313L170.367 838.475Z" fill="url(#paint9_linear_48_3446)"/>
<path d="M35.4238 259.066L35.6827 795.466L36.0421 1540.18" stroke="url(#paint10_linear_48_3446)" stroke-width="1.13945"/>
<path d="M31.0957 243.609L31.0957 786.481L31.0956 1540.18" stroke="url(#paint11_linear_48_3446)" stroke-width="1.13945"/>
<path d="M26.1484 225.678L26.1484 776.057L26.1484 1540.18" stroke="url(#paint12_linear_48_3446)" stroke-width="1.13945"/>
<path d="M21.2021 205.893L21.2021 764.556L21.2021 1540.18" stroke="url(#paint13_linear_48_3446)" stroke-width="1.13945"/>
<path d="M16.2559 188.581L16.2558 754.493L16.2558 1540.18" stroke="url(#paint14_linear_48_3446)" stroke-width="1.13945"/>
<path d="M11.3096 170.65L11.3095 744.07L11.3095 1540.18" stroke="url(#paint15_linear_48_3446)" stroke-width="1.13945"/>
<path d="M1.41699 133.553L1.87911 722.56L2.5207 1540.31" stroke="url(#paint16_linear_48_3446)" stroke-width="1.13945"/>
<path d="M34.9595 365.333L35.4233 388.909L35.887 365.333L37.2781 320.425L35.887 275.517L35.4232 260.922L34.9595 275.517L33.5684 320.425L34.9595 365.333Z" fill="url(#paint17_linear_48_3446)"/>
<path d="M35.5777 743.258L36.0414 768.543L36.5051 743.258L37.8963 695.095L36.5051 646.933L36.0414 631.281L35.5777 646.933L34.1865 695.095L35.5777 743.258Z" fill="url(#paint18_linear_48_3446)"/>
<path d="M21.1142 207.208L24.8836 218.632L22.1882 206.908L18.8959 190.616C18.0613 186.486 16.9265 182.423 15.5003 178.458L9.87448 162.818L7.33649 155.803L8.80047 163.118L12.0928 179.41C12.9274 183.54 14.0623 187.603 15.4884 191.568L21.1142 207.208Z" fill="url(#paint19_linear_48_3446)"/>
<path d="M231.295 2.80969L249.641 2.00608L231.277 2.02234L196.289 1.62213L161.353 3.58399L149.999 4.23144L161.37 4.37135L196.359 4.77156L231.295 2.80969Z" fill="url(#paint20_linear_48_3446)"/>
<mask id="mask0_48_3446" style="mask-type:alpha" maskUnits="userSpaceOnUse" x="29" y="28" width="216" height="205">
<path d="M244.658 128.12L217.741 28.3983L110.085 30.7907L29.3453 132.905L56.2621 232.626L163.918 230.234L244.658 128.12Z" fill="#D9D9D9"/>
</mask>
<g mask="url(#mask0_48_3446)">
<path d="M110.261 31.267L29.9092 132.892L56.6954 232.136L163.742 229.758L244.096 128.132L217.307 28.8882L110.261 31.267Z" stroke="black"/>
<path d="M-35.2483 159.548L128.891 -43.1769" stroke="black" stroke-width="0.318956" stroke-miterlimit="10"/>
<path d="M-23.9279 179.279L156.552 -44.236" stroke="black" stroke-width="0.318956" stroke-miterlimit="10"/>
<path d="M-12.4004 198.786L183.773 -45.5099" stroke="black" stroke-width="0.318956" stroke-miterlimit="10"/>
<path d="M-1.70336 219.17L211.237 -46.3551" stroke="black" stroke-width="0.318956" stroke-miterlimit="10"/>
<path d="M9.40942 239.114L222.963 -28.7989" stroke="black" stroke-width="0.318956" stroke-miterlimit="10"/>
<path d="M20.5196 259.067L234.909 -10.805" stroke="black" stroke-width="0.318956" stroke-miterlimit="10"/>
<path d="M31.6331 279.006L246.854 6.95836" stroke="black" stroke-width="0.318956" stroke-miterlimit="10"/>
<path d="M42.5339 298.961L258.368 24.5258" stroke="black" stroke-width="0.318956" stroke-miterlimit="10"/>
<path d="M53.6467 318.906L270.094 42.0825" stroke="black" stroke-width="0.318956" stroke-miterlimit="10"/>
<path d="M64.9725 339.062L283.359 61.7765" stroke="black" stroke-width="0.318956" stroke-miterlimit="10"/>
<path d="M89.4349 342.162L295.285 79.7708" stroke="black" stroke-width="0.318956" stroke-miterlimit="10"/>
<path d="M115.837 342.409L307.25 97.9686" stroke="black" stroke-width="0.318956" stroke-miterlimit="10"/>
<path d="M143.087 342.654L320.521 117.887" stroke="black" stroke-width="0.318956" stroke-miterlimit="10"/>
<path d="M317.254 159.886L182.439 -47.4434" stroke="black" stroke-width="0.318956" stroke-miterlimit="10"/>
<path d="M262.873 243.103L190.296 -40.4883" stroke="black" stroke-width="0.318956" stroke-miterlimit="10"/>
<path d="M241.916 256.911L164.914 -44.3105" stroke="black" stroke-width="0.318956" stroke-miterlimit="10"/>
<path d="M219.939 271.05L143.617 -31.541" stroke="black" stroke-width="0.318956" stroke-miterlimit="10"/>
<path d="M199.375 284.307L122.712 -17.9419" stroke="black" stroke-width="0.318956" stroke-miterlimit="10"/>
<path d="M178.488 297.901L101.48 -5.37207" stroke="black" stroke-width="0.318956" stroke-miterlimit="10"/>
<path d="M157.09 311.782L80.3535 7.6875" stroke="black" stroke-width="0.318956" stroke-miterlimit="10"/>
<path d="M135.099 325.929L59.1816 21.4219" stroke="black" stroke-width="0.318956" stroke-miterlimit="10"/>
<path d="M114.489 339.391L37.8164 33.7236" stroke="black" stroke-width="0.318956" stroke-miterlimit="10"/>
<path d="M86.6936 329.064L16.582 46.9707" stroke="black" stroke-width="0.318956" stroke-miterlimit="10"/>
<path d="M122.23 336.477L-24.2998 112.238" stroke="black" stroke-width="0.318956" stroke-miterlimit="10"/>
<path d="M94.3413 337.109L-40.2373 131.074" stroke="black" stroke-width="0.318956" stroke-miterlimit="10"/>
</g>
</g>
<defs>
<linearGradient id="paint0_linear_48_3446" x1="242.11" y1="127.5" x2="366.91" y2="1611.92" gradientUnits="userSpaceOnUse">
<stop/>
<stop offset="1" stop-opacity="0"/>
</linearGradient>
<linearGradient id="paint1_linear_48_3446" x1="232.527" y1="127.5" x2="357.327" y2="1611.92" gradientUnits="userSpaceOnUse">
<stop/>
<stop offset="1" stop-opacity="0"/>
</linearGradient>
<linearGradient id="paint2_linear_48_3446" x1="222.943" y1="127.5" x2="347.743" y2="1611.92" gradientUnits="userSpaceOnUse">
<stop/>
<stop offset="1" stop-opacity="0"/>
</linearGradient>
<linearGradient id="paint3_linear_48_3446" x1="175.024" y1="127.499" x2="299.824" y2="1611.92" gradientUnits="userSpaceOnUse">
<stop/>
<stop offset="1" stop-opacity="0"/>
</linearGradient>
<linearGradient id="paint4_linear_48_3446" x1="177.819" y1="225.181" x2="361.253" y2="1591.98" gradientUnits="userSpaceOnUse">
<stop/>
<stop offset="1" stop-opacity="0"/>
</linearGradient>
<linearGradient id="paint5_linear_48_3446" x1="155.857" y1="127.499" x2="280.657" y2="1611.92" gradientUnits="userSpaceOnUse">
<stop/>
<stop offset="1" stop-opacity="0"/>
</linearGradient>
<linearGradient id="paint6_linear_48_3446" x1="273.081" y1="135.369" x2="273.081" y2="301.767" gradientUnits="userSpaceOnUse">
<stop stop-opacity="0"/>
<stop offset="0.5"/>
<stop offset="1" stop-color="#F5F5F5"/>
</linearGradient>
<linearGradient id="paint7_linear_48_3446" x1="271.845" y1="787.586" x2="271.845" y2="1132.23" gradientUnits="userSpaceOnUse">
<stop stop-opacity="0"/>
<stop offset="0.5"/>
<stop offset="1" stop-color="#F5F5F5"/>
</linearGradient>
<linearGradient id="paint8_linear_48_3446" x1="123.29" y1="255" x2="126.07" y2="1625.04" gradientUnits="userSpaceOnUse">
<stop/>
<stop offset="1" stop-opacity="0"/>
</linearGradient>
<linearGradient id="paint9_linear_48_3446" x1="171.294" y1="732.519" x2="171.294" y2="857.74" gradientUnits="userSpaceOnUse">
<stop stop-opacity="0"/>
<stop offset="0.5"/>
<stop offset="1" stop-color="#F5F5F5"/>
</linearGradient>
<linearGradient id="paint10_linear_48_3446" x1="-12.0762" y1="259.089" x2="20.3374" y2="1633.55" gradientUnits="userSpaceOnUse">
<stop/>
<stop offset="1" stop-opacity="0"/>
</linearGradient>
<linearGradient id="paint11_linear_48_3446" x1="-16.4043" y1="243.609" x2="16.1163" y2="1634.65" gradientUnits="userSpaceOnUse">
<stop/>
<stop offset="1" stop-opacity="0"/>
</linearGradient>
<linearGradient id="paint12_linear_48_3446" x1="-21.3515" y1="225.678" x2="12.0742" y2="1635.93" gradientUnits="userSpaceOnUse">
<stop/>
<stop offset="1" stop-opacity="0"/>
</linearGradient>
<linearGradient id="paint13_linear_48_3446" x1="-26.2978" y1="205.893" x2="8.1411" y2="1637.35" gradientUnits="userSpaceOnUse">
<stop/>
<stop offset="1" stop-opacity="0"/>
</linearGradient>
<linearGradient id="paint14_linear_48_3446" x1="-31.2441" y1="188.581" x2="4.09376" y2="1638.59" gradientUnits="userSpaceOnUse">
<stop/>
<stop offset="1" stop-opacity="0"/>
</linearGradient>
<linearGradient id="paint15_linear_48_3446" x1="-36.1904" y1="170.65" x2="0.0907314" y2="1639.87" gradientUnits="userSpaceOnUse">
<stop/>
<stop offset="1" stop-opacity="0"/>
</linearGradient>
<linearGradient id="paint16_linear_48_3446" x1="-46.083" y1="133.59" x2="-93.4637" y2="1612.27" gradientUnits="userSpaceOnUse">
<stop/>
<stop offset="1" stop-opacity="0"/>
</linearGradient>
<linearGradient id="paint17_linear_48_3446" x1="35.887" y1="266.535" x2="35.887" y2="383.296" gradientUnits="userSpaceOnUse">
<stop stop-opacity="0"/>
<stop offset="0.5"/>
<stop offset="1" stop-color="#F5F5F5"/>
</linearGradient>
<linearGradient id="paint18_linear_48_3446" x1="36.5051" y1="637.301" x2="36.5051" y2="762.522" gradientUnits="userSpaceOnUse">
<stop stop-opacity="0"/>
<stop offset="0.5"/>
<stop offset="1" stop-color="#F5F5F5"/>
</linearGradient>
<linearGradient id="paint19_linear_48_3446" x1="8.6431" y1="158.409" x2="24.651" y2="215.726" gradientUnits="userSpaceOnUse">
<stop stop-opacity="0"/>
<stop offset="0.5"/>
<stop offset="1" stop-color="#F5F5F5"/>
</linearGradient>
<linearGradient id="paint20_linear_48_3446" x1="154.36" y1="3.74016" x2="245.262" y2="1.71001" gradientUnits="userSpaceOnUse">
<stop stop-opacity="0"/>
<stop offset="0.5"/>
<stop offset="1" stop-color="#F5F5F5"/>
</linearGradient>
</defs>
</svg>
